<svg height="512pt" viewBox="0 0 512 512.00142" width="512pt" xmlns="http://www.w3.org/2000/svg"><path d="m16.253906 274.375c-4.941406 20.472656-8.773437 42.003906-11.476562 64.457031l168.394531 168.390625c22.449219-2.703125 43.980469-6.535156 64.457031-11.472656zm0 0"/><path d="m1.265625 377.824219c-3.976563 66.019531 2.660156 114.828125 2.980469 117.125l1.566406 11.238281 11.242188 1.566406c1.769531.25 31.160156 4.246094 74.785156 4.246094 12.96875 0 27.203125-.355469 42.335937-1.265625zm0 0"/><path d="m495.746094 237.625c4.9375-20.472656 8.773437-42.003906 11.476562-64.457031l-168.398437-168.390625c-22.449219 2.703125-43.980469 6.535156-64.453125 11.472656zm0 0"/><path d="m510.730469 134.175781c3.976562-66.019531-2.660157-114.828125-2.976563-117.125l-1.570312-11.238281-11.238282-1.566406c-2.296874-.320313-51.105468-6.957032-117.125-2.980469zm0 0"/><path d="m241.144531 25.53125c-5.625 1.800781-11.164062 3.679688-16.59375 5.664062-47.96875 17.539063-88.210937 42.351563-119.609375 73.75-31.394531 31.394532-56.207031 71.636719-73.746094 119.605469-1.984374 5.429688-3.863281 10.96875-5.664062 16.597657l245.320312 245.320312c5.628907-1.800781 11.167969-3.683594 16.597657-5.667969 47.96875-17.535156 88.210937-42.347656 119.609375-73.746093 31.398437-31.394532 56.207031-71.636719 73.746094-119.605469 1.984374-5.429688 3.863281-10.972657 5.664062-16.597657zm.148438 355.445312-110.269531-110.265624 21.25-21.253907 110.269531 110.269531zm59.214843-59.21875-110.269531-110.265624 21.253907-21.25 110.265624 110.265624zm59.21875-59.214843-110.265624-110.269531 21.25-21.25 110.265624 110.265624zm0 0"/></svg>