<svg xmlns="http://www.w3.org/2000/svg" width="95" height="70" viewBox="0 0 95 70">
  <g fill="none" fillRule="evenodd">
    <polygon fill="#2E1946" points="0 70 38.479 70 0 35.53"/>
    <polygon fill="#2E1946" points="79.502 0 48.251 28.599 48.047 28.831 15.942 0 4.318 0 48.635 39.794 92.121 0"/>
    <polygon fill="#2E1946" points="30.227 0 47.663 15.633 64.773 0"/>
    <polygon fill="#2E1946" points="0 22.196 47.393 63.955 95 21.209 95 11.178 48.867 52.6 48.664 52.827 0 9.948"/>
    <polygon fill="#2E1946" points="56.315 70 95 70 95 34.109"/>
    <polygon fill="#FFF" points="92.195 0 48.577 39.287 4.126 0 0 0 0 9.573 48.665 52.585 48.866 52.357 95 10.805 95 0"/>
    <polygon fill="#FFF" points="64.463 0 47.736 15.143 30.691 0 15.833 0 47.824 28.424 48.025 28.195 79.167 0"/>
    <polygon fill="#FFF" points="47.393 64.627 0 22.319 0 35.671 38.442 70 56.349 70 95 34.785 95 21.318"/>
  </g>
</svg>
